<mxfile host="Electron" agent="Mozilla/5.0 (Windows NT 10.0; Win64; x64) AppleWebKit/537.36 (KHTML, like Gecko) draw.io/24.7.8 Chrome/128.0.6613.36 Electron/32.0.1 Safari/537.36" version="24.7.8">
  <diagram name="Page-1" id="bqfxxALGak0NlBb41qj1">
    <mxGraphModel dx="2150" dy="852" grid="1" gridSize="10" guides="1" tooltips="1" connect="1" arrows="1" fold="1" page="1" pageScale="1" pageWidth="827" pageHeight="1169" math="0" shadow="0">
      <root>
        <mxCell id="0" />
        <mxCell id="1" parent="0" />
        <mxCell id="yeY-8UPGRVBbyQ8okEg0-1" style="edgeStyle=orthogonalEdgeStyle;rounded=0;orthogonalLoop=1;jettySize=auto;html=1;exitX=0.5;exitY=1;exitDx=0;exitDy=0;" parent="1" edge="1">
          <mxGeometry relative="1" as="geometry">
            <mxPoint x="-540" y="270" as="sourcePoint" />
            <mxPoint x="-540" y="270" as="targetPoint" />
          </mxGeometry>
        </mxCell>
        <mxCell id="yeY-8UPGRVBbyQ8okEg0-3" value="" style="endArrow=classic;html=1;rounded=0;entryX=0;entryY=0.5;entryDx=0;entryDy=0;" parent="1" target="yeY-8UPGRVBbyQ8okEg0-12" edge="1">
          <mxGeometry width="50" height="50" relative="1" as="geometry">
            <mxPoint x="-685" y="910" as="sourcePoint" />
            <mxPoint x="-290" y="1140" as="targetPoint" />
            <Array as="points" />
          </mxGeometry>
        </mxCell>
        <mxCell id="yeY-8UPGRVBbyQ8okEg0-4" value="" style="endArrow=classic;html=1;rounded=0;entryX=0;entryY=0.5;entryDx=0;entryDy=0;exitX=1;exitY=0.3333333333333333;exitDx=0;exitDy=0;exitPerimeter=0;" parent="1" source="yeY-8UPGRVBbyQ8okEg0-21" target="yeY-8UPGRVBbyQ8okEg0-11" edge="1">
          <mxGeometry width="50" height="50" relative="1" as="geometry">
            <mxPoint x="-440" y="1200" as="sourcePoint" />
            <mxPoint x="-290" y="1230" as="targetPoint" />
          </mxGeometry>
        </mxCell>
        <mxCell id="yeY-8UPGRVBbyQ8okEg0-5" value="" style="endArrow=classic;html=1;rounded=0;entryX=0;entryY=0.5;entryDx=0;entryDy=0;" parent="1" source="yeY-8UPGRVBbyQ8okEg0-25" target="yeY-8UPGRVBbyQ8okEg0-16" edge="1">
          <mxGeometry width="50" height="50" relative="1" as="geometry">
            <mxPoint x="-660" y="440" as="sourcePoint" />
            <mxPoint x="-420" y="340" as="targetPoint" />
            <Array as="points" />
          </mxGeometry>
        </mxCell>
        <mxCell id="yeY-8UPGRVBbyQ8okEg0-6" value="" style="endArrow=classic;html=1;rounded=0;exitX=1;exitY=0.3333333333333333;exitDx=0;exitDy=0;exitPerimeter=0;entryX=0;entryY=0.5;entryDx=0;entryDy=0;" parent="1" source="yeY-8UPGRVBbyQ8okEg0-20" target="yeY-8UPGRVBbyQ8okEg0-18" edge="1">
          <mxGeometry width="50" height="50" relative="1" as="geometry">
            <mxPoint x="-665" y="440" as="sourcePoint" />
            <mxPoint x="-490" y="565" as="targetPoint" />
            <Array as="points" />
          </mxGeometry>
        </mxCell>
        <mxCell id="yeY-8UPGRVBbyQ8okEg0-7" value="" style="endArrow=classic;html=1;rounded=0;entryX=0;entryY=0.5;entryDx=0;entryDy=0;" parent="1" source="yeY-8UPGRVBbyQ8okEg0-25" target="yeY-8UPGRVBbyQ8okEg0-15" edge="1">
          <mxGeometry width="50" height="50" relative="1" as="geometry">
            <mxPoint x="-630" y="454.5" as="sourcePoint" />
            <mxPoint x="-430" y="400" as="targetPoint" />
            <Array as="points" />
          </mxGeometry>
        </mxCell>
        <mxCell id="yeY-8UPGRVBbyQ8okEg0-8" value="" style="endArrow=classic;html=1;rounded=0;exitX=1;exitY=0.3333333333333333;exitDx=0;exitDy=0;exitPerimeter=0;entryX=0;entryY=0.5;entryDx=0;entryDy=0;" parent="1" source="yeY-8UPGRVBbyQ8okEg0-20" target="yeY-8UPGRVBbyQ8okEg0-10" edge="1">
          <mxGeometry width="50" height="50" relative="1" as="geometry">
            <mxPoint x="-630" y="463" as="sourcePoint" />
            <mxPoint x="-430" y="445" as="targetPoint" />
          </mxGeometry>
        </mxCell>
        <mxCell id="yeY-8UPGRVBbyQ8okEg0-10" value="&lt;font style=&quot;vertical-align: inherit;&quot;&gt;&lt;font style=&quot;vertical-align: inherit;&quot;&gt;passer une demande&lt;/font&gt;&lt;/font&gt;" style="ellipse;whiteSpace=wrap;html=1;align=center;verticalAlign=middle;horizontal=1;" parent="1" vertex="1">
          <mxGeometry x="-405" y="410" width="200" height="40" as="geometry" />
        </mxCell>
        <mxCell id="yeY-8UPGRVBbyQ8okEg0-11" value="Gérer les utilisateurs" style="ellipse;whiteSpace=wrap;html=1;align=center;verticalAlign=middle;horizontal=1;" parent="1" vertex="1">
          <mxGeometry x="-450" y="1320" width="160" height="30" as="geometry" />
        </mxCell>
        <mxCell id="yeY-8UPGRVBbyQ8okEg0-12" value="Gérer les demandess" style="ellipse;whiteSpace=wrap;html=1;align=center;verticalAlign=middle;horizontal=1;" parent="1" vertex="1">
          <mxGeometry x="-414" y="970" width="160" height="30" as="geometry" />
        </mxCell>
        <mxCell id="yeY-8UPGRVBbyQ8okEg0-14" value="&lt;font style=&quot;vertical-align: inherit;&quot;&gt;&lt;font style=&quot;vertical-align: inherit;&quot;&gt;Ajouter&lt;/font&gt;&lt;/font&gt;" style="ellipse;whiteSpace=wrap;html=1;align=center;verticalAlign=middle;horizontal=1;" parent="1" vertex="1">
          <mxGeometry y="230" width="170" height="60" as="geometry" />
        </mxCell>
        <mxCell id="yeY-8UPGRVBbyQ8okEg0-15" value="&lt;font style=&quot;vertical-align: inherit;&quot;&gt;&lt;font style=&quot;vertical-align: inherit;&quot;&gt;gerer son panier&lt;/font&gt;&lt;/font&gt;" style="ellipse;whiteSpace=wrap;html=1;align=center;verticalAlign=middle;horizontal=1;" parent="1" vertex="1">
          <mxGeometry x="-417.5" y="300" width="205" height="40" as="geometry" />
        </mxCell>
        <mxCell id="yeY-8UPGRVBbyQ8okEg0-16" value="&lt;font style=&quot;vertical-align: inherit;&quot;&gt;&lt;font style=&quot;vertical-align: inherit;&quot;&gt;Consulter le site&amp;nbsp;&lt;/font&gt;&lt;/font&gt;" style="ellipse;whiteSpace=wrap;html=1;align=center;verticalAlign=middle;horizontal=1;" parent="1" vertex="1">
          <mxGeometry x="-420" y="160" width="190" height="40" as="geometry" />
        </mxCell>
        <mxCell id="yeY-8UPGRVBbyQ8okEg0-17" value="&lt;font style=&quot;vertical-align: inherit;&quot;&gt;&lt;font style=&quot;vertical-align: inherit;&quot;&gt;Se connecter&lt;/font&gt;&lt;/font&gt;" style="ellipse;whiteSpace=wrap;html=1;align=center;verticalAlign=middle;horizontal=1;" parent="1" vertex="1">
          <mxGeometry x="-420" y="60" width="190" height="30" as="geometry" />
        </mxCell>
        <mxCell id="yeY-8UPGRVBbyQ8okEg0-18" value="Laisser un avis" style="ellipse;whiteSpace=wrap;html=1;align=center;verticalAlign=middle;horizontal=1;" parent="1" vertex="1">
          <mxGeometry x="-417.5" y="595" width="160" height="30" as="geometry" />
        </mxCell>
        <mxCell id="yeY-8UPGRVBbyQ8okEg0-19" style="edgeStyle=orthogonalEdgeStyle;rounded=0;orthogonalLoop=1;jettySize=auto;html=1;exitX=0.5;exitY=0.5;exitDx=0;exitDy=0;exitPerimeter=0;" parent="1" source="yeY-8UPGRVBbyQ8okEg0-20" edge="1">
          <mxGeometry relative="1" as="geometry">
            <mxPoint x="-656" y="95" as="targetPoint" />
            <mxPoint x="-616" y="565" as="sourcePoint" />
            <Array as="points">
              <mxPoint x="-656" y="565" />
            </Array>
          </mxGeometry>
        </mxCell>
        <mxCell id="yeY-8UPGRVBbyQ8okEg0-20" value="Citoyen" style="shape=umlActor;verticalLabelPosition=bottom;verticalAlign=top;html=1;outlineConnect=0;" parent="1" vertex="1">
          <mxGeometry x="-640" y="535" width="30" height="60" as="geometry" />
        </mxCell>
        <mxCell id="yeY-8UPGRVBbyQ8okEg0-21" value="Administrateur" style="shape=umlActor;verticalLabelPosition=bottom;verticalAlign=top;html=1;outlineConnect=0;" parent="1" vertex="1">
          <mxGeometry x="-700" y="1320" width="30" height="60" as="geometry" />
        </mxCell>
        <mxCell id="yeY-8UPGRVBbyQ8okEg0-22" value="Voir les détails&amp;nbsp;" style="ellipse;whiteSpace=wrap;html=1;align=center;verticalAlign=middle;horizontal=1;" parent="1" vertex="1">
          <mxGeometry y="155" width="170" height="50" as="geometry" />
        </mxCell>
        <mxCell id="yeY-8UPGRVBbyQ8okEg0-23" value="&amp;lt;&amp;lt;include&amp;gt;&amp;gt;" style="html=1;verticalAlign=bottom;endArrow=open;dashed=1;endSize=8;curved=0;rounded=0;exitX=1;exitY=0.5;exitDx=0;exitDy=0;entryX=0;entryY=0.5;entryDx=0;entryDy=0;" parent="1" source="yeY-8UPGRVBbyQ8okEg0-15" target="yeY-8UPGRVBbyQ8okEg0-14" edge="1">
          <mxGeometry x="0.0103" relative="1" as="geometry">
            <mxPoint x="-220" y="360" as="sourcePoint" />
            <mxPoint x="-130" y="345" as="targetPoint" />
            <mxPoint as="offset" />
          </mxGeometry>
        </mxCell>
        <mxCell id="yeY-8UPGRVBbyQ8okEg0-24" value="&amp;lt;&amp;lt;include&amp;gt;&amp;gt;" style="html=1;verticalAlign=bottom;endArrow=open;dashed=1;endSize=8;curved=0;rounded=0;exitX=1;exitY=0.5;exitDx=0;exitDy=0;entryX=0;entryY=0.5;entryDx=0;entryDy=0;" parent="1" source="yeY-8UPGRVBbyQ8okEg0-16" target="yeY-8UPGRVBbyQ8okEg0-22" edge="1">
          <mxGeometry relative="1" as="geometry">
            <mxPoint x="-290" y="450" as="sourcePoint" />
            <mxPoint x="-370" y="450" as="targetPoint" />
          </mxGeometry>
        </mxCell>
        <mxCell id="yeY-8UPGRVBbyQ8okEg0-25" value="&lt;font style=&quot;vertical-align: inherit;&quot;&gt;&lt;font style=&quot;vertical-align: inherit;&quot;&gt;visiteur&lt;/font&gt;&lt;/font&gt;" style="shape=umlActor;verticalLabelPosition=bottom;verticalAlign=top;html=1;outlineConnect=0;" parent="1" vertex="1">
          <mxGeometry x="-680" y="35" width="30" height="60" as="geometry" />
        </mxCell>
        <mxCell id="yeY-8UPGRVBbyQ8okEg0-26" value="" style="endArrow=classic;html=1;rounded=0;entryX=0;entryY=0.5;entryDx=0;entryDy=0;" parent="1" source="yeY-8UPGRVBbyQ8okEg0-25" target="yeY-8UPGRVBbyQ8okEg0-17" edge="1">
          <mxGeometry width="50" height="50" relative="1" as="geometry">
            <mxPoint x="-595" y="145" as="sourcePoint" />
            <mxPoint x="-420" y="70" as="targetPoint" />
            <Array as="points" />
          </mxGeometry>
        </mxCell>
        <mxCell id="yeY-8UPGRVBbyQ8okEg0-27" value="&lt;font style=&quot;vertical-align: inherit;&quot;&gt;&lt;font style=&quot;vertical-align: inherit;&quot;&gt;&amp;lt;&amp;lt;extend&amp;gt;&amp;gt;&lt;/font&gt;&lt;/font&gt;" style="html=1;verticalAlign=bottom;endArrow=open;dashed=1;endSize=8;curved=0;rounded=0;entryX=1;entryY=0.5;entryDx=0;entryDy=0;exitX=0;exitY=0.5;exitDx=0;exitDy=0;" parent="1" source="yeY-8UPGRVBbyQ8okEg0-28" target="yeY-8UPGRVBbyQ8okEg0-17" edge="1">
          <mxGeometry x="0.0103" relative="1" as="geometry">
            <mxPoint y="75" as="sourcePoint" />
            <mxPoint x="170" y="90" as="targetPoint" />
            <mxPoint as="offset" />
          </mxGeometry>
        </mxCell>
        <mxCell id="yeY-8UPGRVBbyQ8okEg0-28" value="&lt;font style=&quot;vertical-align: inherit;&quot;&gt;&lt;font style=&quot;vertical-align: inherit;&quot;&gt;&lt;font style=&quot;vertical-align: inherit;&quot;&gt;&lt;font style=&quot;vertical-align: inherit;&quot;&gt;Recuperer son mot de passe&lt;/font&gt;&lt;/font&gt;&lt;/font&gt;&lt;/font&gt;" style="ellipse;whiteSpace=wrap;html=1;align=center;verticalAlign=middle;horizontal=1;" parent="1" vertex="1">
          <mxGeometry x="-10" width="190" height="30" as="geometry" />
        </mxCell>
        <mxCell id="yeY-8UPGRVBbyQ8okEg0-29" value="&lt;font style=&quot;vertical-align: inherit;&quot;&gt;&lt;font style=&quot;vertical-align: inherit;&quot;&gt;&lt;font style=&quot;vertical-align: inherit;&quot;&gt;&lt;font style=&quot;vertical-align: inherit;&quot;&gt;s&#39;inscrire&lt;/font&gt;&lt;/font&gt;&lt;/font&gt;&lt;/font&gt;" style="ellipse;whiteSpace=wrap;html=1;align=center;verticalAlign=middle;horizontal=1;" parent="1" vertex="1">
          <mxGeometry x="-420" width="190" height="30" as="geometry" />
        </mxCell>
        <mxCell id="yeY-8UPGRVBbyQ8okEg0-30" value="" style="endArrow=classic;html=1;rounded=0;entryX=0;entryY=0.5;entryDx=0;entryDy=0;" parent="1" source="yeY-8UPGRVBbyQ8okEg0-25" target="yeY-8UPGRVBbyQ8okEg0-29" edge="1">
          <mxGeometry width="50" height="50" relative="1" as="geometry">
            <mxPoint x="-640" y="76" as="sourcePoint" />
            <mxPoint x="-410" y="85" as="targetPoint" />
            <Array as="points" />
          </mxGeometry>
        </mxCell>
        <mxCell id="yeY-8UPGRVBbyQ8okEg0-31" value="&lt;font style=&quot;vertical-align: inherit;&quot;&gt;&lt;font style=&quot;vertical-align: inherit;&quot;&gt;&amp;lt;&amp;lt;extend&amp;gt;&amp;gt;&lt;/font&gt;&lt;/font&gt;" style="html=1;verticalAlign=bottom;endArrow=open;dashed=1;endSize=8;curved=0;rounded=0;entryX=0;entryY=0.5;entryDx=0;entryDy=0;exitX=1;exitY=0.5;exitDx=0;exitDy=0;" parent="1" source="yeY-8UPGRVBbyQ8okEg0-17" target="yeY-8UPGRVBbyQ8okEg0-32" edge="1">
          <mxGeometry x="0.0103" relative="1" as="geometry">
            <mxPoint y="100" as="sourcePoint" />
            <mxPoint x="-220" y="85" as="targetPoint" />
            <mxPoint as="offset" />
          </mxGeometry>
        </mxCell>
        <mxCell id="yeY-8UPGRVBbyQ8okEg0-32" value="&lt;font style=&quot;vertical-align: inherit;&quot;&gt;&lt;font style=&quot;vertical-align: inherit;&quot;&gt;&lt;font style=&quot;vertical-align: inherit;&quot;&gt;&lt;font style=&quot;vertical-align: inherit;&quot;&gt;&lt;font style=&quot;vertical-align: inherit;&quot;&gt;&lt;font style=&quot;vertical-align: inherit;&quot;&gt;Se souvenir de moi&lt;/font&gt;&lt;/font&gt;&lt;/font&gt;&lt;/font&gt;&lt;/font&gt;&lt;/font&gt;" style="ellipse;whiteSpace=wrap;html=1;align=center;verticalAlign=middle;horizontal=1;" parent="1" vertex="1">
          <mxGeometry x="-10" y="80" width="190" height="30" as="geometry" />
        </mxCell>
        <mxCell id="yeY-8UPGRVBbyQ8okEg0-33" value="&amp;lt;&amp;lt;include&amp;gt;&amp;gt;" style="html=1;verticalAlign=bottom;endArrow=open;dashed=1;endSize=8;curved=0;rounded=0;exitX=0.986;exitY=0.708;exitDx=0;exitDy=0;entryX=0;entryY=0.5;entryDx=0;entryDy=0;exitPerimeter=0;" parent="1" source="yeY-8UPGRVBbyQ8okEg0-15" target="yeY-8UPGRVBbyQ8okEg0-34" edge="1">
          <mxGeometry x="0.0103" relative="1" as="geometry">
            <mxPoint x="-205" y="290" as="sourcePoint" />
            <mxPoint y="330" as="targetPoint" />
            <mxPoint as="offset" />
          </mxGeometry>
        </mxCell>
        <mxCell id="yeY-8UPGRVBbyQ8okEg0-34" value="&lt;font style=&quot;vertical-align: inherit;&quot;&gt;&lt;font style=&quot;vertical-align: inherit;&quot;&gt;&lt;font style=&quot;vertical-align: inherit;&quot;&gt;&lt;font style=&quot;vertical-align: inherit;&quot;&gt;supprimer une demande&lt;/font&gt;&lt;/font&gt;&lt;/font&gt;&lt;/font&gt;" style="ellipse;whiteSpace=wrap;html=1;align=center;verticalAlign=middle;horizontal=1;" parent="1" vertex="1">
          <mxGeometry y="300" width="170" height="60" as="geometry" />
        </mxCell>
        <mxCell id="yeY-8UPGRVBbyQ8okEg0-35" value="&lt;font style=&quot;vertical-align: inherit;&quot;&gt;&lt;font style=&quot;vertical-align: inherit;&quot;&gt;&lt;font style=&quot;vertical-align: inherit;&quot;&gt;&lt;font style=&quot;vertical-align: inherit;&quot;&gt;&lt;font style=&quot;vertical-align: inherit;&quot;&gt;&lt;font style=&quot;vertical-align: inherit;&quot;&gt;&lt;font style=&quot;vertical-align: inherit;&quot;&gt;&lt;font style=&quot;vertical-align: inherit;&quot;&gt;Mettre à jour&amp;nbsp;&lt;/font&gt;&lt;/font&gt;&lt;/font&gt;&lt;/font&gt;&lt;/font&gt;&lt;/font&gt;&lt;/font&gt;&lt;/font&gt;" style="ellipse;whiteSpace=wrap;html=1;align=center;verticalAlign=middle;horizontal=1;" parent="1" vertex="1">
          <mxGeometry y="380" width="170" height="60" as="geometry" />
        </mxCell>
        <mxCell id="yeY-8UPGRVBbyQ8okEg0-36" value="&amp;lt;&amp;lt;include&amp;gt;&amp;gt;" style="html=1;verticalAlign=bottom;endArrow=open;dashed=1;endSize=8;curved=0;rounded=0;exitX=0.963;exitY=0.728;exitDx=0;exitDy=0;entryX=0.006;entryY=0.381;entryDx=0;entryDy=0;entryPerimeter=0;exitPerimeter=0;" parent="1" source="yeY-8UPGRVBbyQ8okEg0-15" target="yeY-8UPGRVBbyQ8okEg0-35" edge="1">
          <mxGeometry x="0.0103" relative="1" as="geometry">
            <mxPoint x="-195" y="300" as="sourcePoint" />
            <mxPoint x="10" y="340" as="targetPoint" />
            <mxPoint as="offset" />
          </mxGeometry>
        </mxCell>
        <mxCell id="yeY-8UPGRVBbyQ8okEg0-37" value="&lt;font style=&quot;vertical-align: inherit;&quot;&gt;&lt;font style=&quot;vertical-align: inherit;&quot;&gt;&amp;lt;&amp;lt;extends&amp;gt;&amp;gt;&lt;/font&gt;&lt;/font&gt;" style="html=1;verticalAlign=bottom;endArrow=open;dashed=1;endSize=8;curved=0;rounded=0;entryX=0.5;entryY=0;entryDx=0;entryDy=0;exitX=0.45;exitY=1.042;exitDx=0;exitDy=0;exitPerimeter=0;" parent="1" source="yeY-8UPGRVBbyQ8okEg0-15" target="yeY-8UPGRVBbyQ8okEg0-10" edge="1">
          <mxGeometry x="0.0103" relative="1" as="geometry">
            <mxPoint x="-310" y="350" as="sourcePoint" />
            <mxPoint x="11" y="413" as="targetPoint" />
            <mxPoint as="offset" />
          </mxGeometry>
        </mxCell>
        <mxCell id="yeY-8UPGRVBbyQ8okEg0-39" value="&lt;font style=&quot;vertical-align: inherit;&quot;&gt;&lt;font style=&quot;vertical-align: inherit;&quot;&gt;&lt;font style=&quot;vertical-align: inherit;&quot;&gt;&lt;font style=&quot;vertical-align: inherit;&quot;&gt;Modifier les adresses&lt;/font&gt;&lt;/font&gt;&lt;/font&gt;&lt;/font&gt;" style="ellipse;whiteSpace=wrap;html=1;align=center;verticalAlign=middle;horizontal=1;" parent="1" vertex="1">
          <mxGeometry x="-20" y="530" width="200" height="30" as="geometry" />
        </mxCell>
        <mxCell id="yeY-8UPGRVBbyQ8okEg0-40" value="&lt;font style=&quot;vertical-align: inherit;&quot;&gt;&lt;font style=&quot;vertical-align: inherit;&quot;&gt;&lt;font style=&quot;vertical-align: inherit;&quot;&gt;&lt;font style=&quot;vertical-align: inherit;&quot;&gt;Ajouter une adresse&lt;/font&gt;&lt;/font&gt;&lt;/font&gt;&lt;/font&gt;" style="ellipse;whiteSpace=wrap;html=1;align=center;verticalAlign=middle;horizontal=1;" parent="1" vertex="1">
          <mxGeometry x="10" y="480" width="200" height="30" as="geometry" />
        </mxCell>
        <mxCell id="yeY-8UPGRVBbyQ8okEg0-41" value="&amp;lt;&amp;lt;include&amp;gt;&amp;gt;" style="html=1;verticalAlign=bottom;endArrow=open;dashed=1;endSize=8;curved=0;rounded=0;exitX=1;exitY=0.5;exitDx=0;exitDy=0;entryX=0;entryY=0.5;entryDx=0;entryDy=0;" parent="1" target="yeY-8UPGRVBbyQ8okEg0-40" edge="1">
          <mxGeometry x="0.0103" relative="1" as="geometry">
            <mxPoint x="-290" y="565" as="sourcePoint" />
            <mxPoint x="-150" y="510" as="targetPoint" />
            <mxPoint as="offset" />
          </mxGeometry>
        </mxCell>
        <mxCell id="yeY-8UPGRVBbyQ8okEg0-42" value="&amp;lt;&amp;lt;include&amp;gt;&amp;gt;" style="html=1;verticalAlign=bottom;endArrow=open;dashed=1;endSize=8;curved=0;rounded=0;exitX=1;exitY=0.5;exitDx=0;exitDy=0;entryX=0;entryY=0.5;entryDx=0;entryDy=0;" parent="1" target="yeY-8UPGRVBbyQ8okEg0-39" edge="1">
          <mxGeometry x="0.0103" relative="1" as="geometry">
            <mxPoint x="-290" y="565" as="sourcePoint" />
            <mxPoint x="-19" y="630" as="targetPoint" />
            <mxPoint as="offset" />
          </mxGeometry>
        </mxCell>
        <mxCell id="yeY-8UPGRVBbyQ8okEg0-43" style="edgeStyle=orthogonalEdgeStyle;rounded=0;orthogonalLoop=1;jettySize=auto;html=1;" parent="1" source="yeY-8UPGRVBbyQ8okEg0-44" target="yeY-8UPGRVBbyQ8okEg0-25" edge="1">
          <mxGeometry relative="1" as="geometry">
            <Array as="points">
              <mxPoint x="-685" y="487" />
              <mxPoint x="-680" y="487" />
            </Array>
          </mxGeometry>
        </mxCell>
        <mxCell id="yeY-8UPGRVBbyQ8okEg0-44" value="&lt;font style=&quot;vertical-align: inherit;&quot;&gt;&lt;font style=&quot;vertical-align: inherit;&quot;&gt;Agent de mairie&lt;/font&gt;&lt;/font&gt;" style="shape=umlActor;verticalLabelPosition=bottom;verticalAlign=top;html=1;outlineConnect=0;" parent="1" vertex="1">
          <mxGeometry x="-700" y="880" width="30" height="60" as="geometry" />
        </mxCell>
        <mxCell id="yeY-8UPGRVBbyQ8okEg0-45" value="&lt;font style=&quot;vertical-align: inherit;&quot;&gt;&lt;font style=&quot;vertical-align: inherit;&quot;&gt;&lt;font style=&quot;vertical-align: inherit;&quot;&gt;&lt;font style=&quot;vertical-align: inherit;&quot;&gt;gérer les clients&lt;/font&gt;&lt;/font&gt;&lt;/font&gt;&lt;/font&gt;" style="ellipse;whiteSpace=wrap;html=1;align=center;verticalAlign=middle;horizontal=1;" parent="1" vertex="1">
          <mxGeometry x="-432.5" y="715" width="255" height="40" as="geometry" />
        </mxCell>
        <mxCell id="yeY-8UPGRVBbyQ8okEg0-46" value="" style="endArrow=classic;html=1;rounded=0;entryX=0;entryY=0.5;entryDx=0;entryDy=0;exitX=0.5;exitY=0.5;exitDx=0;exitDy=0;exitPerimeter=0;" parent="1" source="yeY-8UPGRVBbyQ8okEg0-44" target="yeY-8UPGRVBbyQ8okEg0-45" edge="1">
          <mxGeometry width="50" height="50" relative="1" as="geometry">
            <mxPoint x="-650" y="770" as="sourcePoint" />
            <mxPoint x="-395" y="875" as="targetPoint" />
            <Array as="points" />
          </mxGeometry>
        </mxCell>
        <mxCell id="yeY-8UPGRVBbyQ8okEg0-47" style="edgeStyle=orthogonalEdgeStyle;rounded=0;orthogonalLoop=1;jettySize=auto;html=1;exitX=0.5;exitY=1;exitDx=0;exitDy=0;" parent="1" edge="1">
          <mxGeometry relative="1" as="geometry">
            <mxPoint x="-270.5" y="750" as="sourcePoint" />
            <mxPoint x="-270.5" y="750" as="targetPoint" />
          </mxGeometry>
        </mxCell>
        <mxCell id="yeY-8UPGRVBbyQ8okEg0-49" value="&lt;font style=&quot;vertical-align: inherit;&quot;&gt;&lt;font style=&quot;vertical-align: inherit;&quot;&gt;&lt;font style=&quot;vertical-align: inherit;&quot;&gt;&lt;font style=&quot;vertical-align: inherit;&quot;&gt;suivre les performances de&amp;nbsp;&amp;nbsp;&lt;/font&gt;&lt;/font&gt;&lt;/font&gt;&lt;/font&gt;" style="ellipse;whiteSpace=wrap;html=1;align=center;verticalAlign=middle;horizontal=1;" parent="1" vertex="1">
          <mxGeometry x="-420" y="840" width="230" height="40" as="geometry" />
        </mxCell>
        <mxCell id="yeY-8UPGRVBbyQ8okEg0-51" value="" style="endArrow=classic;html=1;rounded=0;entryX=0;entryY=0.5;entryDx=0;entryDy=0;exitX=0.5;exitY=0.5;exitDx=0;exitDy=0;exitPerimeter=0;" parent="1" source="yeY-8UPGRVBbyQ8okEg0-44" target="yeY-8UPGRVBbyQ8okEg0-49" edge="1">
          <mxGeometry width="50" height="50" relative="1" as="geometry">
            <mxPoint x="-680" y="930" as="sourcePoint" />
            <mxPoint x="-405" y="905" as="targetPoint" />
            <Array as="points" />
          </mxGeometry>
        </mxCell>
        <mxCell id="yeY-8UPGRVBbyQ8okEg0-52" value="Gérer les avis" style="ellipse;whiteSpace=wrap;html=1;align=center;verticalAlign=middle;horizontal=1;" parent="1" vertex="1">
          <mxGeometry x="-450" y="1080" width="160" height="30" as="geometry" />
        </mxCell>
        <mxCell id="yeY-8UPGRVBbyQ8okEg0-54" value="&lt;font style=&quot;vertical-align: inherit;&quot;&gt;&lt;font style=&quot;vertical-align: inherit;&quot;&gt;Gérer les retours et les réclamations&lt;/font&gt;&lt;/font&gt;" style="ellipse;whiteSpace=wrap;html=1;align=center;verticalAlign=middle;horizontal=1;" parent="1" vertex="1">
          <mxGeometry x="60" y="690" width="230" height="30" as="geometry" />
        </mxCell>
        <mxCell id="yeY-8UPGRVBbyQ8okEg0-56" value="Accéder aux rapports de ventes" style="ellipse;whiteSpace=wrap;html=1;align=center;verticalAlign=middle;horizontal=1;" parent="1" vertex="1">
          <mxGeometry x="-35" y="830" width="240" height="30" as="geometry" />
        </mxCell>
        <mxCell id="yeY-8UPGRVBbyQ8okEg0-57" value="&lt;font style=&quot;vertical-align: inherit;&quot;&gt;&lt;font style=&quot;vertical-align: inherit;&quot;&gt;Accéder aux informations des clients&lt;/font&gt;&lt;/font&gt;" style="ellipse;whiteSpace=wrap;html=1;align=center;verticalAlign=middle;horizontal=1;" parent="1" vertex="1">
          <mxGeometry x="80" y="640" width="220" height="30" as="geometry" />
        </mxCell>
        <mxCell id="yeY-8UPGRVBbyQ8okEg0-60" value="&amp;lt;&amp;lt;include&amp;gt;&amp;gt;" style="html=1;verticalAlign=bottom;endArrow=open;dashed=1;endSize=8;curved=0;rounded=0;entryX=0;entryY=0.5;entryDx=0;entryDy=0;exitX=1;exitY=0.5;exitDx=0;exitDy=0;" parent="1" source="yeY-8UPGRVBbyQ8okEg0-49" target="yeY-8UPGRVBbyQ8okEg0-56" edge="1">
          <mxGeometry x="0.0103" relative="1" as="geometry">
            <mxPoint x="200" y="710" as="sourcePoint" />
            <mxPoint x="305" y="682.5" as="targetPoint" />
            <mxPoint as="offset" />
          </mxGeometry>
        </mxCell>
        <mxCell id="yeY-8UPGRVBbyQ8okEg0-61" value="&amp;lt;&amp;lt;include&amp;gt;&amp;gt;" style="html=1;verticalAlign=bottom;endArrow=open;dashed=1;endSize=8;curved=0;rounded=0;entryX=0;entryY=0.5;entryDx=0;entryDy=0;" parent="1" target="yeY-8UPGRVBbyQ8okEg0-54" edge="1">
          <mxGeometry x="0.0103" relative="1" as="geometry">
            <mxPoint x="-210" y="720" as="sourcePoint" />
            <mxPoint x="25" y="725" as="targetPoint" />
            <mxPoint as="offset" />
          </mxGeometry>
        </mxCell>
        <mxCell id="yeY-8UPGRVBbyQ8okEg0-62" value="&amp;lt;&amp;lt;include&amp;gt;&amp;gt;" style="html=1;verticalAlign=bottom;endArrow=open;dashed=1;endSize=8;curved=0;rounded=0;exitX=1;exitY=0;exitDx=0;exitDy=0;entryX=0;entryY=0.5;entryDx=0;entryDy=0;" parent="1" source="yeY-8UPGRVBbyQ8okEg0-45" target="yeY-8UPGRVBbyQ8okEg0-57" edge="1">
          <mxGeometry x="0.0103" relative="1" as="geometry">
            <mxPoint x="-165" y="675" as="sourcePoint" />
            <mxPoint y="690" as="targetPoint" />
            <mxPoint as="offset" />
          </mxGeometry>
        </mxCell>
        <mxCell id="yeY-8UPGRVBbyQ8okEg0-63" value="" style="endArrow=classic;html=1;rounded=0;entryX=0;entryY=0.5;entryDx=0;entryDy=0;exitX=0.5;exitY=0.5;exitDx=0;exitDy=0;exitPerimeter=0;" parent="1" source="yeY-8UPGRVBbyQ8okEg0-44" target="yeY-8UPGRVBbyQ8okEg0-52" edge="1">
          <mxGeometry width="50" height="50" relative="1" as="geometry">
            <mxPoint x="-680" y="910" as="sourcePoint" />
            <mxPoint x="-410" y="910" as="targetPoint" />
            <Array as="points" />
          </mxGeometry>
        </mxCell>
        <mxCell id="yeY-8UPGRVBbyQ8okEg0-64" value="Analyser les données pour améliorer les ventes" style="ellipse;whiteSpace=wrap;html=1;align=center;verticalAlign=middle;horizontal=1;" parent="1" vertex="1">
          <mxGeometry x="-35" y="870" width="315" height="30" as="geometry" />
        </mxCell>
        <mxCell id="yeY-8UPGRVBbyQ8okEg0-65" value="Répondre aux avis des clients" style="ellipse;whiteSpace=wrap;html=1;align=center;verticalAlign=middle;horizontal=1;" parent="1" vertex="1">
          <mxGeometry x="-145.62" y="1139" width="240" height="30" as="geometry" />
        </mxCell>
        <mxCell id="yeY-8UPGRVBbyQ8okEg0-66" value="Modérer les avis (approbation/suppression)" style="ellipse;whiteSpace=wrap;html=1;align=center;verticalAlign=middle;horizontal=1;" parent="1" vertex="1">
          <mxGeometry x="-159.99" y="1190" width="310" height="30" as="geometry" />
        </mxCell>
        <mxCell id="yeY-8UPGRVBbyQ8okEg0-67" value="&amp;lt;&amp;lt;include&amp;gt;&amp;gt;" style="html=1;verticalAlign=bottom;endArrow=open;dashed=1;endSize=8;curved=0;rounded=0;entryX=0;entryY=0.5;entryDx=0;entryDy=0;exitX=1;exitY=0.5;exitDx=0;exitDy=0;" parent="1" source="yeY-8UPGRVBbyQ8okEg0-52" target="yeY-8UPGRVBbyQ8okEg0-65" edge="1">
          <mxGeometry x="0.0103" relative="1" as="geometry">
            <mxPoint x="-200" y="921" as="sourcePoint" />
            <mxPoint x="40" y="915" as="targetPoint" />
            <mxPoint as="offset" />
          </mxGeometry>
        </mxCell>
        <mxCell id="yeY-8UPGRVBbyQ8okEg0-68" value="&amp;lt;&amp;lt;include&amp;gt;&amp;gt;" style="html=1;verticalAlign=bottom;endArrow=open;dashed=1;endSize=8;curved=0;rounded=0;entryX=0;entryY=0.5;entryDx=0;entryDy=0;exitX=1;exitY=1;exitDx=0;exitDy=0;" parent="1" source="yeY-8UPGRVBbyQ8okEg0-49" target="yeY-8UPGRVBbyQ8okEg0-64" edge="1">
          <mxGeometry x="0.0103" relative="1" as="geometry">
            <mxPoint x="-190" y="931" as="sourcePoint" />
            <mxPoint x="50" y="925" as="targetPoint" />
            <mxPoint as="offset" />
          </mxGeometry>
        </mxCell>
        <mxCell id="yeY-8UPGRVBbyQ8okEg0-69" value="&amp;lt;&amp;lt;include&amp;gt;&amp;gt;" style="html=1;verticalAlign=bottom;endArrow=open;dashed=1;endSize=8;curved=0;rounded=0;entryX=0;entryY=0.5;entryDx=0;entryDy=0;exitX=1;exitY=0.5;exitDx=0;exitDy=0;" parent="1" source="yeY-8UPGRVBbyQ8okEg0-52" target="yeY-8UPGRVBbyQ8okEg0-66" edge="1">
          <mxGeometry x="0.0103" relative="1" as="geometry">
            <mxPoint x="-220" y="970" as="sourcePoint" />
            <mxPoint x="60" y="935" as="targetPoint" />
            <mxPoint as="offset" />
          </mxGeometry>
        </mxCell>
        <mxCell id="yeY-8UPGRVBbyQ8okEg0-72" value="Ajouter" style="ellipse;whiteSpace=wrap;html=1;align=center;verticalAlign=middle;horizontal=1;" parent="1" vertex="1">
          <mxGeometry x="70" y="1280" width="100" height="20" as="geometry" />
        </mxCell>
        <mxCell id="yeY-8UPGRVBbyQ8okEg0-76" value="&amp;lt;&amp;lt;include&amp;gt;&amp;gt;" style="html=1;verticalAlign=bottom;endArrow=open;dashed=1;endSize=8;curved=0;rounded=0;entryX=0;entryY=0.5;entryDx=0;entryDy=0;" parent="1" source="yeY-8UPGRVBbyQ8okEg0-11" target="yeY-8UPGRVBbyQ8okEg0-72" edge="1">
          <mxGeometry x="0.0103" relative="1" as="geometry">
            <mxPoint x="-113" y="1215" as="sourcePoint" />
            <mxPoint x="105" y="1220" as="targetPoint" />
            <mxPoint as="offset" />
          </mxGeometry>
        </mxCell>
        <mxCell id="yeY-8UPGRVBbyQ8okEg0-80" value="Gérer les stocks" style="ellipse;whiteSpace=wrap;html=1;align=center;verticalAlign=middle;horizontal=1;" parent="1" vertex="1">
          <mxGeometry x="215" y="1040" width="150" height="30" as="geometry" />
        </mxCell>
        <mxCell id="yeY-8UPGRVBbyQ8okEg0-81" value="Modifier&amp;nbsp;" style="ellipse;whiteSpace=wrap;html=1;align=center;verticalAlign=middle;horizontal=1;" parent="1" vertex="1">
          <mxGeometry x="330" y="1010" width="107.5" height="30" as="geometry" />
        </mxCell>
        <mxCell id="yeY-8UPGRVBbyQ8okEg0-82" value="Ajouter de nouvelles demandent" style="ellipse;whiteSpace=wrap;html=1;align=center;verticalAlign=middle;horizontal=1;" parent="1" vertex="1">
          <mxGeometry x="290" y="960" width="190" height="30" as="geometry" />
        </mxCell>
        <mxCell id="yeY-8UPGRVBbyQ8okEg0-83" value="Supprimer&amp;nbsp;" style="ellipse;whiteSpace=wrap;html=1;" parent="1" vertex="1">
          <mxGeometry x="128.62" y="1075" width="80" height="30" as="geometry" />
        </mxCell>
        <mxCell id="yeY-8UPGRVBbyQ8okEg0-84" value="Modifier " style="ellipse;whiteSpace=wrap;html=1;align=center;verticalAlign=middle;horizontal=1;" parent="1" vertex="1">
          <mxGeometry x="47.5" y="1310" width="80" height="20" as="geometry" />
        </mxCell>
        <mxCell id="yeY-8UPGRVBbyQ8okEg0-85" value="Supprimer" style="ellipse;whiteSpace=wrap;html=1;align=center;verticalAlign=middle;horizontal=1;" parent="1" vertex="1">
          <mxGeometry x="5" y="1340" width="80" height="20" as="geometry" />
        </mxCell>
        <mxCell id="yeY-8UPGRVBbyQ8okEg0-86" value="Gérer les rôles" style="ellipse;whiteSpace=wrap;html=1;align=center;verticalAlign=middle;horizontal=1;" parent="1" vertex="1">
          <mxGeometry x="-47.5" y="1370" width="117.5" height="20" as="geometry" />
        </mxCell>
        <mxCell id="yeY-8UPGRVBbyQ8okEg0-87" value="Gérer le site" style="ellipse;whiteSpace=wrap;html=1;align=center;verticalAlign=middle;horizontal=1;" parent="1" vertex="1">
          <mxGeometry x="-460" y="1420" width="100" height="30" as="geometry" />
        </mxCell>
        <mxCell id="yeY-8UPGRVBbyQ8okEg0-88" value="Sécurité" style="ellipse;whiteSpace=wrap;html=1;align=center;verticalAlign=middle;horizontal=1;" parent="1" vertex="1">
          <mxGeometry x="-450" y="1610" width="100" height="30" as="geometry" />
        </mxCell>
        <mxCell id="yeY-8UPGRVBbyQ8okEg0-90" value="&amp;lt;&amp;lt;include&amp;gt;&amp;gt;" style="html=1;verticalAlign=bottom;endArrow=open;dashed=1;endSize=8;curved=0;rounded=0;entryX=0;entryY=0.5;entryDx=0;entryDy=0;" parent="1" target="yeY-8UPGRVBbyQ8okEg0-84" edge="1">
          <mxGeometry x="0.0103" relative="1" as="geometry">
            <mxPoint x="-290" y="1335" as="sourcePoint" />
            <mxPoint x="-180" y="1345" as="targetPoint" />
            <mxPoint as="offset" />
          </mxGeometry>
        </mxCell>
        <mxCell id="yeY-8UPGRVBbyQ8okEg0-91" value="&amp;lt;&amp;lt;include&amp;gt;&amp;gt;" style="html=1;verticalAlign=bottom;endArrow=open;dashed=1;endSize=8;curved=0;rounded=0;entryX=0;entryY=0.5;entryDx=0;entryDy=0;" parent="1" target="yeY-8UPGRVBbyQ8okEg0-86" edge="1">
          <mxGeometry x="0.0069" relative="1" as="geometry">
            <mxPoint x="-290" y="1340" as="sourcePoint" />
            <mxPoint x="-170" y="1355" as="targetPoint" />
            <mxPoint as="offset" />
          </mxGeometry>
        </mxCell>
        <mxCell id="yeY-8UPGRVBbyQ8okEg0-92" value="&amp;lt;&amp;lt;include&amp;gt;&amp;gt;" style="html=1;verticalAlign=bottom;endArrow=open;dashed=1;endSize=8;curved=0;rounded=0;entryX=0;entryY=0.5;entryDx=0;entryDy=0;" parent="1" target="yeY-8UPGRVBbyQ8okEg0-85" edge="1">
          <mxGeometry x="0.0103" relative="1" as="geometry">
            <mxPoint x="-290" y="1340" as="sourcePoint" />
            <mxPoint x="-160" y="1365" as="targetPoint" />
            <mxPoint as="offset" />
          </mxGeometry>
        </mxCell>
        <mxCell id="yeY-8UPGRVBbyQ8okEg0-93" value="" style="endArrow=classic;html=1;rounded=0;entryX=0;entryY=0.5;entryDx=0;entryDy=0;exitX=1;exitY=0.3333333333333333;exitDx=0;exitDy=0;exitPerimeter=0;" parent="1" source="yeY-8UPGRVBbyQ8okEg0-21" target="yeY-8UPGRVBbyQ8okEg0-87" edge="1">
          <mxGeometry width="50" height="50" relative="1" as="geometry">
            <mxPoint x="-660" y="1350" as="sourcePoint" />
            <mxPoint x="-480" y="1375" as="targetPoint" />
          </mxGeometry>
        </mxCell>
        <mxCell id="yeY-8UPGRVBbyQ8okEg0-95" value="" style="endArrow=classic;html=1;rounded=0;entryX=0;entryY=0.5;entryDx=0;entryDy=0;exitX=1;exitY=0.3333333333333333;exitDx=0;exitDy=0;exitPerimeter=0;" parent="1" source="yeY-8UPGRVBbyQ8okEg0-21" target="yeY-8UPGRVBbyQ8okEg0-88" edge="1">
          <mxGeometry width="50" height="50" relative="1" as="geometry">
            <mxPoint x="-660" y="1340" as="sourcePoint" />
            <mxPoint x="-460" y="1395" as="targetPoint" />
          </mxGeometry>
        </mxCell>
        <mxCell id="yeY-8UPGRVBbyQ8okEg0-96" value=" Modifier les paramètres du site" style="ellipse;whiteSpace=wrap;html=1;align=center;verticalAlign=middle;horizontal=1;" parent="1" vertex="1">
          <mxGeometry x="-120" y="1440" width="225" height="30" as="geometry" />
        </mxCell>
        <mxCell id="yeY-8UPGRVBbyQ8okEg0-97" value=" Gérer les catégories de produits" style="ellipse;whiteSpace=wrap;html=1;align=center;verticalAlign=middle;horizontal=1;" parent="1" vertex="1">
          <mxGeometry x="-128.75" y="1510" width="198.75" height="30" as="geometry" />
        </mxCell>
        <mxCell id="yeY-8UPGRVBbyQ8okEg0-99" value=" Gérer les paramètres de sécurité du site" style="ellipse;whiteSpace=wrap;html=1;align=center;verticalAlign=middle;horizontal=1;" parent="1" vertex="1">
          <mxGeometry x="-120" y="1620" width="280" height="30" as="geometry" />
        </mxCell>
        <mxCell id="yeY-8UPGRVBbyQ8okEg0-101" value="&amp;lt;&amp;lt;include&amp;gt;&amp;gt;" style="html=1;verticalAlign=bottom;endArrow=open;dashed=1;endSize=8;curved=0;rounded=0;entryX=0;entryY=0.5;entryDx=0;entryDy=0;exitX=1;exitY=0.5;exitDx=0;exitDy=0;" parent="1" source="yeY-8UPGRVBbyQ8okEg0-87" target="yeY-8UPGRVBbyQ8okEg0-97" edge="1">
          <mxGeometry x="0.0069" relative="1" as="geometry">
            <mxPoint x="-310" y="1390" as="sourcePoint" />
            <mxPoint x="-67" y="1430" as="targetPoint" />
            <mxPoint as="offset" />
          </mxGeometry>
        </mxCell>
        <mxCell id="yeY-8UPGRVBbyQ8okEg0-102" value="&amp;lt;&amp;lt;include&amp;gt;&amp;gt;" style="html=1;verticalAlign=bottom;endArrow=open;dashed=1;endSize=8;curved=0;rounded=0;entryX=0;entryY=0.5;entryDx=0;entryDy=0;exitX=1;exitY=0.5;exitDx=0;exitDy=0;" parent="1" source="yeY-8UPGRVBbyQ8okEg0-87" target="yeY-8UPGRVBbyQ8okEg0-96" edge="1">
          <mxGeometry x="0.0069" relative="1" as="geometry">
            <mxPoint x="-300" y="1400" as="sourcePoint" />
            <mxPoint x="-57" y="1440" as="targetPoint" />
            <mxPoint as="offset" />
          </mxGeometry>
        </mxCell>
        <mxCell id="yeY-8UPGRVBbyQ8okEg0-103" value="&amp;lt;&amp;lt;include&amp;gt;&amp;gt;" style="html=1;verticalAlign=bottom;endArrow=open;dashed=1;endSize=8;curved=0;rounded=0;entryX=0;entryY=0.5;entryDx=0;entryDy=0;exitX=0.995;exitY=0.789;exitDx=0;exitDy=0;exitPerimeter=0;" parent="1" source="yeY-8UPGRVBbyQ8okEg0-88" target="yeY-8UPGRVBbyQ8okEg0-99" edge="1">
          <mxGeometry x="0.0069" relative="1" as="geometry">
            <mxPoint x="-310" y="1545" as="sourcePoint" />
            <mxPoint x="-65" y="1565" as="targetPoint" />
            <mxPoint as="offset" />
          </mxGeometry>
        </mxCell>
        <mxCell id="yeY-8UPGRVBbyQ8okEg0-104" style="edgeStyle=orthogonalEdgeStyle;rounded=0;orthogonalLoop=1;jettySize=auto;html=1;exitX=0.5;exitY=1;exitDx=0;exitDy=0;" parent="1" source="yeY-8UPGRVBbyQ8okEg0-96" target="yeY-8UPGRVBbyQ8okEg0-96" edge="1">
          <mxGeometry relative="1" as="geometry" />
        </mxCell>
        <mxCell id="yeY-8UPGRVBbyQ8okEg0-105" style="edgeStyle=orthogonalEdgeStyle;rounded=0;orthogonalLoop=1;jettySize=auto;html=1;exitX=0.5;exitY=1;exitDx=0;exitDy=0;" parent="1" edge="1">
          <mxGeometry relative="1" as="geometry">
            <mxPoint x="-380" y="1550" as="sourcePoint" />
            <mxPoint x="-380" y="1550" as="targetPoint" />
          </mxGeometry>
        </mxCell>
        <mxCell id="yeY-8UPGRVBbyQ8okEg0-106" value="&amp;lt;&amp;lt;include&amp;gt;&amp;gt;" style="html=1;verticalAlign=bottom;endArrow=open;dashed=1;endSize=8;curved=0;rounded=0;entryX=0;entryY=0.5;entryDx=0;entryDy=0;exitX=1;exitY=0.5;exitDx=0;exitDy=0;" parent="1" source="yeY-8UPGRVBbyQ8okEg0-12" target="yeY-8UPGRVBbyQ8okEg0-80" edge="1">
          <mxGeometry x="0.0103" relative="1" as="geometry">
            <mxPoint x="-239.99999999999977" y="980.0000000000002" as="sourcePoint" />
            <mxPoint x="-137" y="1210" as="targetPoint" />
            <mxPoint as="offset" />
          </mxGeometry>
        </mxCell>
        <mxCell id="yeY-8UPGRVBbyQ8okEg0-107" value="&amp;lt;&amp;lt;include&amp;gt;&amp;gt;" style="html=1;verticalAlign=bottom;endArrow=open;dashed=1;endSize=8;curved=0;rounded=0;entryX=0;entryY=0.5;entryDx=0;entryDy=0;exitX=1;exitY=0.5;exitDx=0;exitDy=0;" parent="1" source="yeY-8UPGRVBbyQ8okEg0-12" target="yeY-8UPGRVBbyQ8okEg0-83" edge="1">
          <mxGeometry x="0.0103" relative="1" as="geometry">
            <mxPoint x="-239.99999999999977" y="980.0000000000002" as="sourcePoint" />
            <mxPoint x="-117" y="1230" as="targetPoint" />
            <mxPoint as="offset" />
          </mxGeometry>
        </mxCell>
        <mxCell id="yeY-8UPGRVBbyQ8okEg0-108" value="&amp;lt;&amp;lt;include&amp;gt;&amp;gt;" style="html=1;verticalAlign=bottom;endArrow=open;dashed=1;endSize=8;curved=0;rounded=0;exitX=1;exitY=0.5;exitDx=0;exitDy=0;entryX=0;entryY=0.5;entryDx=0;entryDy=0;" parent="1" source="yeY-8UPGRVBbyQ8okEg0-12" target="yeY-8UPGRVBbyQ8okEg0-81" edge="1">
          <mxGeometry x="0.0103" relative="1" as="geometry">
            <mxPoint x="-239.99999999999977" y="980.0000000000002" as="sourcePoint" />
            <mxPoint x="-107" y="1240" as="targetPoint" />
            <mxPoint as="offset" />
          </mxGeometry>
        </mxCell>
        <mxCell id="yeY-8UPGRVBbyQ8okEg0-109" value="&amp;lt;&amp;lt;include&amp;gt;&amp;gt;" style="html=1;verticalAlign=bottom;endArrow=open;dashed=1;endSize=8;curved=0;rounded=0;entryX=0;entryY=0.5;entryDx=0;entryDy=0;exitX=1;exitY=0.5;exitDx=0;exitDy=0;" parent="1" source="yeY-8UPGRVBbyQ8okEg0-12" target="yeY-8UPGRVBbyQ8okEg0-82" edge="1">
          <mxGeometry x="0.0103" relative="1" as="geometry">
            <mxPoint x="-239.99999999999977" y="980.0000000000002" as="sourcePoint" />
            <mxPoint x="-97" y="1250" as="targetPoint" />
            <mxPoint as="offset" />
          </mxGeometry>
        </mxCell>
        <mxCell id="yeY-8UPGRVBbyQ8okEg0-110" value="&amp;lt;&amp;lt;include&amp;gt;&amp;gt;" style="html=1;verticalAlign=bottom;endArrow=open;dashed=1;endSize=8;curved=0;rounded=0;entryX=0;entryY=0.5;entryDx=0;entryDy=0;exitX=1;exitY=0.5;exitDx=0;exitDy=0;" parent="1" source="yeY-8UPGRVBbyQ8okEg0-18" target="yeY-8UPGRVBbyQ8okEg0-111" edge="1">
          <mxGeometry x="0.0103" relative="1" as="geometry">
            <mxPoint x="-220" y="600" as="sourcePoint" />
            <mxPoint x="-42.49999999999636" y="609.5" as="targetPoint" />
            <mxPoint as="offset" />
          </mxGeometry>
        </mxCell>
        <mxCell id="yeY-8UPGRVBbyQ8okEg0-111" value="&lt;font style=&quot;vertical-align: inherit;&quot;&gt;&lt;font style=&quot;vertical-align: inherit;&quot;&gt;&lt;font style=&quot;vertical-align: inherit;&quot;&gt;&lt;font style=&quot;vertical-align: inherit;&quot;&gt;Écrire ou lire des avis&amp;nbsp;&lt;/font&gt;&lt;/font&gt;&lt;/font&gt;&lt;/font&gt;" style="ellipse;whiteSpace=wrap;html=1;align=center;verticalAlign=middle;horizontal=1;" parent="1" vertex="1">
          <mxGeometry x="-45" y="584.5" width="275" height="30" as="geometry" />
        </mxCell>
        <mxCell id="yeY-8UPGRVBbyQ8okEg0-112" value="&lt;font style=&quot;vertical-align: inherit;&quot;&gt;&lt;font style=&quot;vertical-align: inherit;&quot;&gt;&amp;lt;&amp;lt;extends&amp;gt;&amp;gt;&lt;/font&gt;&lt;/font&gt;" style="html=1;verticalAlign=bottom;endArrow=open;dashed=1;endSize=8;curved=0;rounded=0;exitX=1;exitY=1;exitDx=0;exitDy=0;entryX=0.5;entryY=0;entryDx=0;entryDy=0;" parent="1" source="yeY-8UPGRVBbyQ8okEg0-10" target="yeY-8UPGRVBbyQ8okEg0-18" edge="1">
          <mxGeometry x="0.0103" relative="1" as="geometry">
            <mxPoint x="-225" y="642" as="sourcePoint" />
            <mxPoint x="-225" y="730" as="targetPoint" />
            <mxPoint as="offset" />
          </mxGeometry>
        </mxCell>
        <mxCell id="yeY-8UPGRVBbyQ8okEg0-113" value="Maire" style="shape=umlActor;verticalLabelPosition=bottom;verticalAlign=top;html=1;outlineConnect=0;" parent="1" vertex="1">
          <mxGeometry x="-690" y="1694" width="30" height="60" as="geometry" />
        </mxCell>
        <mxCell id="nSSHc1CeCSfeR8es7Pk5-1" value="Approuve les documents" style="ellipse;whiteSpace=wrap;html=1;align=center;verticalAlign=middle;horizontal=1;" vertex="1" parent="1">
          <mxGeometry x="-432.5" y="1739" width="152.5" height="30" as="geometry" />
        </mxCell>
        <mxCell id="nSSHc1CeCSfeR8es7Pk5-2" value="" style="endArrow=classic;html=1;rounded=0;entryX=0;entryY=0.5;entryDx=0;entryDy=0;exitX=1;exitY=1;exitDx=0;exitDy=0;exitPerimeter=0;" edge="1" parent="1" source="yeY-8UPGRVBbyQ8okEg0-113" target="nSSHc1CeCSfeR8es7Pk5-1">
          <mxGeometry width="50" height="50" relative="1" as="geometry">
            <mxPoint x="-670" y="1530" as="sourcePoint" />
            <mxPoint x="-450" y="1815" as="targetPoint" />
          </mxGeometry>
        </mxCell>
      </root>
    </mxGraphModel>
  </diagram>
</mxfile>
